<?xml version="1.0" encoding="UTF-8" standalone="no"?>
<!-- Created with Inkscape (http://www.inkscape.org/) -->

<svg
   xmlns:dc="http://purl.org/dc/elements/1.1/"
   xmlns:cc="http://creativecommons.org/ns#"
   xmlns:rdf="http://www.w3.org/1999/02/22-rdf-syntax-ns#"
   xmlns:svg="http://www.w3.org/2000/svg"
   xmlns="http://www.w3.org/2000/svg"
   xmlns:sodipodi="http://sodipodi.sourceforge.net/DTD/sodipodi-0.dtd"
   xmlns:inkscape="http://www.inkscape.org/namespaces/inkscape"
   width="210mm"
   height="297mm"
   viewBox="0 0 744.09448819 1052.3622047"
   id="svg2"
   version="1.1"
   inkscape:version="0.91 r13725"
   sodipodi:docname="logo_jeannick.svg">
  <defs
     id="defs4" />
  <sodipodi:namedview
     id="base"
     pagecolor="#ffffff"
     bordercolor="#666666"
     borderopacity="1.0"
     inkscape:pageopacity="0.0"
     inkscape:pageshadow="2"
     inkscape:zoom="1"
     inkscape:cx="633.18971"
     inkscape:cy="776.33634"
     inkscape:document-units="px"
     inkscape:current-layer="layer1"
     showgrid="false"
     inkscape:window-width="1920"
     inkscape:window-height="1028"
     inkscape:window-x="-8"
     inkscape:window-y="-8"
     inkscape:window-maximized="1" />
  <metadata
     id="metadata7">
    <rdf:RDF>
      <cc:Work
         rdf:about="">
        <dc:format>image/svg+xml</dc:format>
        <dc:type
           rdf:resource="http://purl.org/dc/dcmitype/StillImage" />
        <dc:title></dc:title>
      </cc:Work>
    </rdf:RDF>
  </metadata>
  <g
     inkscape:label="Calque 1"
     inkscape:groupmode="layer"
     id="layer1">
    <g
       id="g4188"
       transform="translate(-88,-92)">
      <circle
         r="251.05106"
         cy="427.96344"
         cx="483.84247"
         id="path4217"
         style="opacity:1;fill:#00b6ff;fill-opacity:1;fill-rule:nonzero;stroke:#00b6ff;stroke-width:0.81974936;stroke-linecap:round;stroke-linejoin:miter;stroke-miterlimit:4;stroke-dasharray:none;stroke-opacity:1" />
      <g
         transform="matrix(0.99039488,-0.13826777,0.13826777,0.99039488,-639.43177,697.48275)"
         id="g4253">
        <path
           style="fill:none;fill-rule:evenodd;stroke:none;stroke-width:3;stroke-linecap:butt;stroke-linejoin:miter;stroke-miterlimit:4;stroke-dasharray:none;stroke-opacity:1"
           d="m 1095.7147,-303.96562 c -17.8893,202.98777 30.5313,291.132586 137.4352,354.378241"
           id="path4231-8"
           inkscape:connector-curvature="0"
           sodipodi:nodetypes="cc" />
        <path
           style="fill:none;fill-rule:evenodd;stroke:none;stroke-width:3;stroke-linecap:butt;stroke-linejoin:miter;stroke-miterlimit:4;stroke-dasharray:none;stroke-opacity:1"
           d="m 1045.4764,23.890891 c 71.911,-137.538921 46.1708,-100.502732 187.1845,26.124048"
           id="path4237-2"
           inkscape:connector-curvature="0"
           sodipodi:nodetypes="cc" />
        <g
           style="stroke:none"
           id="g4198"
           transform="matrix(0.89952959,0,0,0.89952959,335.19865,-822.7237)">
          <path
             sodipodi:nodetypes="ccc"
             inkscape:connector-curvature="0"
             id="path4229-1"
             d="m 723.71175,812.39635 c 64.012,4.64697 84.5242,-149.58635 120.7832,-235.76732 -12.2904,136.62926 21.2075,324.97548 -54.422,364.15998"
             style="fill:none;fill-rule:evenodd;stroke:none;stroke-width:3;stroke-linecap:butt;stroke-linejoin:miter;stroke-miterlimit:4;stroke-dasharray:none;stroke-opacity:1" />
          <path
             sodipodi:nodetypes="cc"
             inkscape:connector-curvature="0"
             id="path4233-3"
             d="m 845.62075,577.10378 c 96.3525,89.56735 191.78305,180.6523 348.53385,178.30922"
             style="fill:none;fill-rule:evenodd;stroke:none;stroke-width:3;stroke-linecap:butt;stroke-linejoin:miter;stroke-miterlimit:4;stroke-dasharray:none;stroke-opacity:1" />
          <path
             sodipodi:nodetypes="cc"
             inkscape:connector-curvature="0"
             id="path4239-3"
             d="m 723.95035,812.38033 c 100.4617,-184.0729 116.298,-20.76642 112.8846,34.85028"
             style="fill:none;fill-rule:evenodd;stroke:none;stroke-width:3;stroke-linecap:butt;stroke-linejoin:miter;stroke-miterlimit:4;stroke-dasharray:none;stroke-opacity:1" />
          <path
             sodipodi:nodetypes="cc"
             inkscape:connector-curvature="0"
             id="path4241-6"
             d="M 1193.1662,755.30671 C 1033.8646,708.60295 792.60845,578.37492 864.10905,817.30481"
             style="fill:none;fill-rule:evenodd;stroke:none;stroke-width:3;stroke-linecap:butt;stroke-linejoin:miter;stroke-miterlimit:4;stroke-dasharray:none;stroke-opacity:1" />
          <path
             inkscape:connector-curvature="0"
             id="path4224"
             d="m 694.56205,837.44156 c 0,-0.12185 5.97784,-11.70985 8.72314,-16.9097 26.46751,-50.1318 49.9485,-80.46788 79.56009,-102.78671 5.71516,-4.30768 16.02088,-11.0342 16.3703,-10.68488 0.30645,0.30648 -4.66799,14.42195 -8.43675,23.93982 -11.17882,28.23237 -24.45291,52.71223 -38.16238,70.37879 -17.52267,22.58052 -35.606,34.61344 -53.97447,35.91529 -3.68502,0.26116 -4.07993,0.27543 -4.07993,0.14745 z"
             style="opacity:1;fill:#008000;fill-opacity:1;fill-rule:nonzero;stroke:none;stroke-width:0.89999998;stroke-linecap:round;stroke-linejoin:miter;stroke-miterlimit:4;stroke-dasharray:none;stroke-opacity:1" />
          <path
             transform="matrix(1.1116922,0,0,1.1116922,-372.63771,914.61549)"
             inkscape:connector-curvature="0"
             id="path4230"
             d="m 1086.5026,-58.386005 c 0.1261,-1.604248 0.382,-5.939697 0.5686,-9.63433 2.354,-46.594015 -1.8319,-75.424785 -13.1079,-90.282965 -4.8325,-6.3676 -10.6904,-10.03917 -18.5988,-11.65726 l -2.8849,-0.59026 19.0234,-58.67768 c 10.4629,-32.27273 19.199,-58.7362 19.4135,-58.80772 0.5165,-0.17217 0.5101,0.1884 -0.3047,16.93608 -1.3964,28.70226 -1.5843,35.57129 -1.5905,58.12292 -0.01,22.74902 0.2064,29.26038 1.4259,43.66384 3.4476,40.71931 12.3449,74.597898 27.6001,105.093744 1.4348,2.868202 2.5298,5.214913 2.4334,5.214913 -0.096,0 -1.7281,-0.863367 -3.6261,-1.918593 -5.1629,-2.870404 -7.3421,-3.538539 -11.5826,-3.551051 -2.5236,-0.0075 -4.061,0.172841 -5.3712,0.629901 -2.3158,0.807795 -6.5844,3.36475 -10.3342,6.19026 -1.5948,1.20176 -2.9883,2.185017 -3.0965,2.185017 -0.1083,0 -0.094,-1.312567 0.033,-2.916816 z"
             style="opacity:1;fill:#008000;fill-opacity:1;fill-rule:nonzero;stroke:none;stroke-width:0.89999998;stroke-linecap:round;stroke-linejoin:miter;stroke-miterlimit:4;stroke-dasharray:none;stroke-opacity:1" />
          <path
             inkscape:connector-curvature="0"
             id="path4232"
             d="m 846.19264,753.54939 c -0.0678,-0.20379 -0.44257,-3.30955 -0.83177,-6.90171 -2.80135,-25.84877 -3.83334,-46.87207 -3.84034,-78.23534 0,-23.41444 0.5275,-42.14809 2.02495,-71.2147 0.30115,-5.84512 0.5475,-11.07702 0.5475,-11.62646 0,-1.796 0.54651,-0.88143 1.92334,3.21872 6.61279,19.69228 19.48852,36.28737 40.4099,52.08261 17.18265,12.97263 38.11237,24.32703 67.93273,36.85358 0.34396,0.14447 0.62533,0.39781 0.62533,0.56296 0,0.16516 -0.0956,0.24155 -0.21111,0.16975 -0.46224,-0.28563 -14.12627,-2.42433 -18.82662,-2.94671 -14.54927,-1.61701 -26.58034,-1.38811 -37.10273,0.70589 -10.7425,2.13779 -19.62347,6.23538 -26.8975,12.41021 -13.69193,11.62286 -21.67099,31.56608 -24.59441,61.47211 -0.22734,2.32573 -0.47169,3.63176 -0.69314,3.70559 -0.1881,0.0627 -0.39788,-0.0527 -0.46613,-0.2565 z"
             style="opacity:1;fill:#008000;fill-opacity:1;fill-rule:nonzero;stroke:none;stroke-width:0.89999998;stroke-linecap:round;stroke-linejoin:miter;stroke-miterlimit:4;stroke-dasharray:none;stroke-opacity:1" />
          <path
             inkscape:connector-curvature="0"
             id="path4234"
             d="m 1166.5843,761.16622 c -14.6722,-0.42143 -30.8307,-1.88582 -45.4014,-4.11461 -60.0246,-9.18158 -120.2849,-33.18547 -184.08127,-73.32628 -5.6536,-3.55728 -6.41124,-4.09243 -6.15568,-4.348 0.0593,-0.0596 2.96455,0.39906 6.4556,1.01923 38.08625,6.76595 75.20715,17.21623 124.33185,35.00176 13.9121,5.03691 32.0481,11.96241 56.5777,21.60498 8.3784,3.2936 17.2003,6.76105 19.6039,7.70545 2.4037,0.94439 7.351,2.89148 10.9942,4.32683 7.381,2.90821 23.7872,9.25143 28.2136,10.90863 1.5796,0.59136 2.9787,1.16775 3.1093,1.2809 0.2673,0.23189 -4.195,0.21263 -13.6478,-0.0588 z"
             style="opacity:1;fill:#008000;fill-opacity:1;fill-rule:nonzero;stroke:none;stroke-width:0.89999998;stroke-linecap:round;stroke-linejoin:miter;stroke-miterlimit:4;stroke-dasharray:none;stroke-opacity:1" />
          <path
             inkscape:connector-curvature="0"
             id="path4236"
             d="m 988.00384,965.91863 c -32.15539,-17.04341 -55.82331,-31.81915 -78.7811,-49.18262 -12.3314,-9.32645 -21.99576,-17.7004 -31.64318,-27.41797 -8.16481,-8.22408 -13.29524,-14.27661 -17.54842,-20.70238 -6.47833,-9.78749 -8.35625,-17.07222 -5.13586,-19.92298 0.96268,-0.85214 1.93982,-1.17815 3.85292,-1.28545 4.65104,-0.26087 11.42383,2.14447 20.34191,7.22441 5.74687,3.27358 19.00786,13.93147 30.0401,24.14338 13.45805,12.45733 24.13773,23.80693 46.29338,49.19748 15.54513,17.81495 21.85912,24.78955 32.3278,35.71052 3.24552,3.38579 3.64483,3.84115 3.34507,3.81448 -0.075,-0.007 -1.46692,-0.71719 -3.09262,-1.57887 z"
             style="opacity:1;fill:#008000;fill-opacity:1;fill-rule:nonzero;stroke:none;stroke-width:0.89999998;stroke-linecap:round;stroke-linejoin:miter;stroke-miterlimit:4;stroke-dasharray:none;stroke-opacity:1" />
          <path
             inkscape:connector-curvature="0"
             id="path4238"
             d="m 779.29621,964.61102 c -6e-5,-0.054 0.68243,-2.30236 1.51645,-4.99622 0.83405,-2.69384 2.79113,-9.21464 4.34921,-14.49067 5.11654,-17.32727 7.59702,-24.84338 11.10643,-33.65351 9.6359,-24.19037 22.22658,-41.36999 39.90864,-54.45442 2.47265,-1.82968 7.38298,-5.14949 7.6165,-5.14924 0.16588,1.7e-4 2.68268,3.15457 4.24193,5.3173 4.78549,6.63722 8.04817,13.34749 9.63059,19.80633 1.00076,4.08465 1.39558,9.37664 0.99713,13.36637 -2.28816,22.92263 -24.71814,45.30825 -69.46291,69.32538 -3.38852,1.8188 -9.64081,5.02726 -9.79631,5.0271 -0.0584,-6e-5 -0.10763,-0.0444 -0.10769,-0.0984 z"
             style="opacity:1;fill:#008000;fill-opacity:1;fill-rule:nonzero;stroke:none;stroke-width:0.89999998;stroke-linecap:round;stroke-linejoin:miter;stroke-miterlimit:4;stroke-dasharray:none;stroke-opacity:1" />
        </g>
      </g>
      <path
         sodipodi:nodetypes="cssscscsc"
         inkscape:connector-curvature="0"
         id="path4270"
         d="M 661.82419,275.96682 C 685.59659,230.41418 546.53409,167.92304 470.69723,174.48506 268.24766,192.00265 201.44476,367.77245 241.41904,509.7757 c 41.36724,146.95157 275.04076,254.96947 429.394,85.96669 61.2153,-67.02518 -114.58636,-245.39942 -135.96041,-173.17 2.89477,56.15738 93.09922,171.76918 20.16036,189.13122 -130.54421,31.0742 -274.069,-26.37475 -263.46533,-191.17055 7.5556,-84.89385 75.99092,-174.7593 158.94036,-186.28457 90.97233,-12.63999 197.36167,56.8513 211.33617,41.71833 z"
         style="fill:#8e5400;fill-opacity:1;fill-rule:evenodd;stroke:none;stroke-width:1px;stroke-linecap:butt;stroke-linejoin:miter;stroke-opacity:1" />
    </g>
  </g>
</svg>
